# xmcd
#
# Track frame offsets: 
#        150
#        17681
#        33797
#        51331
#        65760
#        80989
#        98373
#        114293
#        131189
#        159494
#
# Disc length: 2288 seconds
#
# Revision: 0
# Processed by: cddbd v1.5.2PL0 Copyright (c) Steve Scherf et al.
# Submitted via: ExactAudioCopyFreeDBPlugin 1.0
#
DISCID=7e08ee0a
DTITLE=Gary Carter - Gary Carter
DYEAR=1900
DGENRE=
TTITLE0=Any Old Road
TTITLE1=Ruby's Eyes
TTITLE2=What Made Milwaukee Famous
TTITLE3=And So It Goes
TTITLE4=Lonely Street
TTITLE5=My Love Follows You Where You Go
TTITLE6=Shenandoah
TTITLE7=Stay
TTITLE8=The Lighthouse Tale
TTITLE9=When You Come Back Down
EXTD=
EXTT0=
EXTT1=
EXTT2=
EXTT3=
EXTT4=
EXTT5=
EXTT6=
EXTT7=
EXTT8=
EXTT9=
PLAYORDER=
